<svg width="24" height="25" viewBox="0 0 24 25" fill="none" xmlns="http://www.w3.org/2000/svg">
<path d="M18 19.6693H17.24C16.44 19.6693 15.68 19.9793 15.12 20.5393L13.41 22.2293C12.63 22.9993 11.36 22.9993 10.58 22.2293L8.87 20.5393C8.31 19.9793 7.54 19.6693 6.75 19.6693H6C4.34 19.6693 3 18.3393 3 16.6993V5.78931C3 4.14931 4.34 2.81934 6 2.81934H18C19.66 2.81934 21 4.14931 21 5.78931V16.6993C21 18.3293 19.66 19.6693 18 19.6693Z" stroke="#545555" stroke-width="1.5" stroke-miterlimit="10" stroke-linecap="round" stroke-linejoin="round"/>
<path d="M12 10.8089C13.2868 10.8089 14.33 9.76571 14.33 8.47888C14.33 7.19206 13.2868 6.14893 12 6.14893C10.7132 6.14893 9.66998 7.19206 9.66998 8.47888C9.66998 9.76571 10.7132 10.8089 12 10.8089Z" stroke="#545555" stroke-width="1.5" stroke-linecap="round" stroke-linejoin="round"/>
<path d="M16 16.4689C16 14.6689 14.21 13.209 12 13.209C9.79 13.209 8 14.6689 8 16.4689" stroke="#545555" stroke-width="1.5" stroke-linecap="round" stroke-linejoin="round"/>
</svg>
